<svg xmlns="http://www.w3.org/2000/svg" width="64" height="64" fill="none" viewBox="0 0 64 64"><path fill="url(#paint0_linear)" d="M0 12C0 5.37258 5.37258 0 12 0H52C58.6274 0 64 5.37258 64 12V52C64 58.6274 58.6274 64 52 64H12C5.37258 64 0 58.6274 0 52V12Z"/><path fill="#fff" fill-opacity=".8" d="M12 16C12 13.7909 13.7909 12 16 12H48C50.2091 12 52 13.7909 52 16V48C52 50.2091 50.2091 52 48 52H16C13.7909 52 12 50.2091 12 48V16Z" filter="url(#filter0_dd)"/><path fill="#fff" fill-opacity=".8" d="M14 17C14 15.3431 15.3431 14 17 14H47C48.6569 14 50 15.3431 50 17V47C50 48.6569 48.6569 50 47 50H17C15.3431 50 14 48.6569 14 47V17Z" filter="url(#filter1_dd)"/><path fill="#fff" fill-opacity=".8" d="M17 43C17 43.5523 16.5523 44 16 44L12 44C11.4477 44 11 43.5523 11 43L11 41C11 40.4477 11.4477 40 12 40L16 40C16.5523 40 17 40.4477 17 41L17 43Z" filter="url(#filter2_dd)"/><path fill="#fff" fill-opacity=".8" d="M17 23C17 23.5523 16.5523 24 16 24L12 24C11.4477 24 11 23.5523 11 23L11 21C11 20.4477 11.4477 20 12 20L16 20C16.5523 20 17 20.4477 17 21L17 23Z" filter="url(#filter3_dd)"/><path fill="#fff" fill-opacity=".8" fill-rule="evenodd" d="M33.8811 21.116C34.024 20.5825 34.5724 20.266 35.1058 20.4089C35.6393 20.5518 35.9559 21.1002 35.8129 21.6336L35.5413 22.6473C39.9834 24.3231 42.6401 28.9247 41.8704 33.6095L42.884 33.8811C43.4175 34.024 43.7341 34.5724 43.5911 35.1058C43.4482 35.6393 42.8998 35.9559 42.3664 35.8129L41.3527 35.5413C39.6769 39.9834 35.0754 42.6401 30.3905 41.8704L30.1189 42.884C29.976 43.4175 29.4276 43.7341 28.8942 43.5911C28.3607 43.4482 28.0441 42.8998 28.1871 42.3664L28.4587 41.3528C24.0166 39.6769 21.3599 35.0754 22.1296 30.3905L21.116 30.1189C20.5825 29.976 20.2659 29.4276 20.4089 28.8942C20.5518 28.3607 21.1002 28.0441 21.6336 28.1871L22.6473 28.4587C24.3231 24.0166 28.9246 21.3599 33.6095 22.1296L33.8811 21.116ZM33.0886 24.0736C29.4764 23.5728 25.9637 25.6009 24.5912 28.9795L31.2929 30.7753L33.0886 24.0736ZM24.0736 30.9114C23.5728 34.5236 25.6009 38.0363 28.9795 39.4088L30.7753 32.7071L24.0736 30.9114ZM30.9114 39.9264C34.5236 40.4272 38.0363 38.3991 39.4088 35.0205L32.7071 33.2248L30.9114 39.9264ZM39.9264 33.0886C40.4272 29.4764 38.3991 25.9637 35.0205 24.5912L33.2247 31.2929L39.9264 33.0886Z" clip-rule="evenodd" filter="url(#filter4_dd)"/><path fill="#fff" fill-opacity=".8" d="M34.8978 32.7765C34.4689 34.3769 32.8239 35.3266 31.2235 34.8978C29.6231 34.469 28.6734 32.824 29.1022 31.2236C29.531 29.6232 31.1761 28.6734 32.7765 29.1022C34.3769 29.5311 35.3266 31.1761 34.8978 32.7765Z" filter="url(#filter5_dd)"/><path fill="#fff" fill-opacity=".8" d="M34 32C34 33.1046 33.1046 34 32 34C30.8954 34 30 33.1046 30 32C30 30.8954 30.8954 30 32 30C33.1046 30 34 30.8954 34 32Z" filter="url(#filter6_dd)"/><defs><filter id="filter0_dd" width="48" height="48" x="8" y="11" color-interpolation-filters="sRGB" filterUnits="userSpaceOnUse"><feFlood flood-opacity="0" result="BackgroundImageFix"/><feColorMatrix in="SourceAlpha" values="0 0 0 0 0 0 0 0 0 0 0 0 0 0 0 0 0 0 127 0"/><feOffset dy="3"/><feGaussianBlur stdDeviation="2"/><feColorMatrix values="0 0 0 0 0 0 0 0 0 0 0 0 0 0 0 0 0 0 0.2 0"/><feBlend in2="BackgroundImageFix" result="effect1_dropShadow"/><feColorMatrix in="SourceAlpha" values="0 0 0 0 0 0 0 0 0 0 0 0 0 0 0 0 0 0 127 0"/><feOffset dy="1"/><feGaussianBlur stdDeviation="1"/><feColorMatrix values="0 0 0 0 0 0 0 0 0 0 0 0 0 0 0 0 0 0 0.1 0"/><feBlend in2="effect1_dropShadow" result="effect2_dropShadow"/><feBlend in="SourceGraphic" in2="effect2_dropShadow" result="shape"/></filter><filter id="filter1_dd" width="40" height="40" x="12" y="13" color-interpolation-filters="sRGB" filterUnits="userSpaceOnUse"><feFlood flood-opacity="0" result="BackgroundImageFix"/><feColorMatrix in="SourceAlpha" values="0 0 0 0 0 0 0 0 0 0 0 0 0 0 0 0 0 0 127 0"/><feOffset dy="1"/><feGaussianBlur stdDeviation="1"/><feColorMatrix values="0 0 0 0 0 0 0 0 0 0 0 0 0 0 0 0 0 0 0.2 0"/><feBlend in2="BackgroundImageFix" result="effect1_dropShadow"/><feColorMatrix in="SourceAlpha" values="0 0 0 0 0 0 0 0 0 0 0 0 0 0 0 0 0 0 127 0"/><feOffset dy="1"/><feGaussianBlur stdDeviation=".5"/><feColorMatrix values="0 0 0 0 0 0 0 0 0 0 0 0 0 0 0 0 0 0 0.1 0"/><feBlend in2="effect1_dropShadow" result="effect2_dropShadow"/><feBlend in="SourceGraphic" in2="effect2_dropShadow" result="shape"/></filter><filter id="filter2_dd" width="10" height="8" x="9" y="39" color-interpolation-filters="sRGB" filterUnits="userSpaceOnUse"><feFlood flood-opacity="0" result="BackgroundImageFix"/><feColorMatrix in="SourceAlpha" values="0 0 0 0 0 0 0 0 0 0 0 0 0 0 0 0 0 0 127 0"/><feOffset dy="1"/><feGaussianBlur stdDeviation="1"/><feColorMatrix values="0 0 0 0 0 0 0 0 0 0 0 0 0 0 0 0 0 0 0.2 0"/><feBlend in2="BackgroundImageFix" result="effect1_dropShadow"/><feColorMatrix in="SourceAlpha" values="0 0 0 0 0 0 0 0 0 0 0 0 0 0 0 0 0 0 127 0"/><feOffset dy="1"/><feGaussianBlur stdDeviation=".5"/><feColorMatrix values="0 0 0 0 0 0 0 0 0 0 0 0 0 0 0 0 0 0 0.1 0"/><feBlend in2="effect1_dropShadow" result="effect2_dropShadow"/><feBlend in="SourceGraphic" in2="effect2_dropShadow" result="shape"/></filter><filter id="filter3_dd" width="10" height="8" x="9" y="19" color-interpolation-filters="sRGB" filterUnits="userSpaceOnUse"><feFlood flood-opacity="0" result="BackgroundImageFix"/><feColorMatrix in="SourceAlpha" values="0 0 0 0 0 0 0 0 0 0 0 0 0 0 0 0 0 0 127 0"/><feOffset dy="1"/><feGaussianBlur stdDeviation="1"/><feColorMatrix values="0 0 0 0 0 0 0 0 0 0 0 0 0 0 0 0 0 0 0.2 0"/><feBlend in2="BackgroundImageFix" result="effect1_dropShadow"/><feColorMatrix in="SourceAlpha" values="0 0 0 0 0 0 0 0 0 0 0 0 0 0 0 0 0 0 127 0"/><feOffset dy="1"/><feGaussianBlur stdDeviation=".5"/><feColorMatrix values="0 0 0 0 0 0 0 0 0 0 0 0 0 0 0 0 0 0 0.1 0"/><feBlend in2="effect1_dropShadow" result="effect2_dropShadow"/><feBlend in="SourceGraphic" in2="effect2_dropShadow" result="shape"/></filter><filter id="filter4_dd" width="27.251" height="27.251" x="18.375" y="19.375" color-interpolation-filters="sRGB" filterUnits="userSpaceOnUse"><feFlood flood-opacity="0" result="BackgroundImageFix"/><feColorMatrix in="SourceAlpha" values="0 0 0 0 0 0 0 0 0 0 0 0 0 0 0 0 0 0 127 0"/><feOffset dy="1"/><feGaussianBlur stdDeviation="1"/><feColorMatrix values="0 0 0 0 0 0 0 0 0 0 0 0 0 0 0 0 0 0 0.2 0"/><feBlend in2="BackgroundImageFix" result="effect1_dropShadow"/><feColorMatrix in="SourceAlpha" values="0 0 0 0 0 0 0 0 0 0 0 0 0 0 0 0 0 0 127 0"/><feOffset dy="1"/><feGaussianBlur stdDeviation=".5"/><feColorMatrix values="0 0 0 0 0 0 0 0 0 0 0 0 0 0 0 0 0 0 0.1 0"/><feBlend in2="effect1_dropShadow" result="effect2_dropShadow"/><feBlend in="SourceGraphic" in2="effect2_dropShadow" result="shape"/></filter><filter id="filter5_dd" width="10.002" height="10.002" x="26.999" y="27.999" color-interpolation-filters="sRGB" filterUnits="userSpaceOnUse"><feFlood flood-opacity="0" result="BackgroundImageFix"/><feColorMatrix in="SourceAlpha" values="0 0 0 0 0 0 0 0 0 0 0 0 0 0 0 0 0 0 127 0"/><feOffset dy="1"/><feGaussianBlur stdDeviation="1"/><feColorMatrix values="0 0 0 0 0 0 0 0 0 0 0 0 0 0 0 0 0 0 0.2 0"/><feBlend in2="BackgroundImageFix" result="effect1_dropShadow"/><feColorMatrix in="SourceAlpha" values="0 0 0 0 0 0 0 0 0 0 0 0 0 0 0 0 0 0 127 0"/><feOffset dy="1"/><feGaussianBlur stdDeviation=".5"/><feColorMatrix values="0 0 0 0 0 0 0 0 0 0 0 0 0 0 0 0 0 0 0.1 0"/><feBlend in2="effect1_dropShadow" result="effect2_dropShadow"/><feBlend in="SourceGraphic" in2="effect2_dropShadow" result="shape"/></filter><filter id="filter6_dd" width="8" height="8" x="28" y="29" color-interpolation-filters="sRGB" filterUnits="userSpaceOnUse"><feFlood flood-opacity="0" result="BackgroundImageFix"/><feColorMatrix in="SourceAlpha" values="0 0 0 0 0 0 0 0 0 0 0 0 0 0 0 0 0 0 127 0"/><feOffset dy="1"/><feGaussianBlur stdDeviation="1"/><feColorMatrix values="0 0 0 0 0 0 0 0 0 0 0 0 0 0 0 0 0 0 0.2 0"/><feBlend in2="BackgroundImageFix" result="effect1_dropShadow"/><feColorMatrix in="SourceAlpha" values="0 0 0 0 0 0 0 0 0 0 0 0 0 0 0 0 0 0 127 0"/><feOffset dy="1"/><feGaussianBlur stdDeviation=".5"/><feColorMatrix values="0 0 0 0 0 0 0 0 0 0 0 0 0 0 0 0 0 0 0.1 0"/><feBlend in2="effect1_dropShadow" result="effect2_dropShadow"/><feBlend in="SourceGraphic" in2="effect2_dropShadow" result="shape"/></filter><linearGradient id="paint0_linear" x1="32" x2="32" y2="64" gradientUnits="userSpaceOnUse"><stop stop-color="#686AF0"/><stop offset="1" stop-color="#A45DF4"/></linearGradient></defs></svg>