<svg id="SvgjsSvg1001" width="288" height="288" xmlns="http://www.w3.org/2000/svg" version="1.1" xmlns:xlink="http://www.w3.org/1999/xlink" xmlns:svgjs="http://svgjs.com/svgjs"><defs id="SvgjsDefs1002"></defs><g id="SvgjsG1008" transform="matrix(1,0,0,1,0,0)"><svg xmlns="http://www.w3.org/2000/svg" viewBox="0 0 64 64" width="288" height="288"><g data-name="Home" fill="#ffffff" class="color000 svgShape"><path fill="#ffffff" d="M3.89,28.92a2,2,0,0,1-1.08-3.69l28.11-18a2,2,0,1,1,2.16,3.36L5,28.6A2,2,0,0,1,3.89,28.92Z" class="color222 svgShape"></path><path fill="#ffffff" d="M60.11 28.92A2 2 0 0 1 59 28.6l-28.12-18a2 2 0 0 1 2.16-3.36l28.11 18a2 2 0 0 1-1.08 3.69zM45.44 57.09H18.56a9 9 0 0 1-9-9V31.39a2 2 0 0 1 4 0v16.7a5 5 0 0 0 5 5H45.44a5 5 0 0 0 5-5V31.39a2 2 0 0 1 4 0v16.7A9 9 0 0 1 45.44 57.09z" class="color222 svgShape"></path></g></svg></g></svg>