<svg xmlns="http://www.w3.org/2000/svg" width="64" height="64" fill="none" viewBox="0 0 64 64"><path fill="url(#paint0_linear)" d="M0 12C0 5.37258 5.37258 0 12 0H52C58.6274 0 64 5.37258 64 12V52C64 58.6274 58.6274 64 52 64H12C5.37258 64 0 58.6274 0 52V12Z"/><path fill="#fff" fill-opacity=".8" d="M32 18H48C49.1046 18 50 18.8954 50 20V48C50 49.1046 49.1046 50 48 50H32V18Z" filter="url(#filter0_d)"/><path fill="#fff" fill-opacity=".8" d="M14 20C14 18.8954 14.8954 18 16 18H32V50H16C14.8954 50 14 49.1046 14 48V20Z" filter="url(#filter1_d)"/><path fill="#fff" fill-opacity=".8" d="M12 16.4396C12 15.1776 13.1546 14.231 14.3922 14.4785L32 18V50L13.6078 46.3216C12.6729 46.1346 12 45.3138 12 44.3604V16.4396Z" filter="url(#filter2_d)"/><path fill="#fff" fill-opacity=".8" d="M32 18L49.6078 14.4785C50.8453 14.231 52 15.1776 52 16.4396V44.3604C52 45.3138 51.3271 46.1346 50.3922 46.3216L32 50V18Z" filter="url(#filter3_d)"/><path fill="#fff" fill-opacity=".8" d="M16 14.886C16 13.4896 17.3947 12.5231 18.7022 13.0134L32 18V50L17.2978 44.4867C16.5171 44.194 16 43.4477 16 42.614V14.886Z" filter="url(#filter4_d)"/><path fill="#fff" fill-opacity=".8" d="M32 18L45.2978 13.0134C46.6053 12.5231 48 13.4896 48 14.886V42.614C48 43.4477 47.4829 44.194 46.7022 44.4867L32 50V18Z" filter="url(#filter5_d)"/><defs><filter id="filter0_d" width="26" height="40" x="28" y="18" color-interpolation-filters="sRGB" filterUnits="userSpaceOnUse"><feFlood flood-opacity="0" result="BackgroundImageFix"/><feColorMatrix in="SourceAlpha" values="0 0 0 0 0 0 0 0 0 0 0 0 0 0 0 0 0 0 127 0"/><feOffset dy="4"/><feGaussianBlur stdDeviation="2"/><feColorMatrix values="0 0 0 0 0 0 0 0 0 0 0 0 0 0 0 0 0 0 0.2 0"/><feBlend in2="BackgroundImageFix" result="effect1_dropShadow"/><feBlend in="SourceGraphic" in2="effect1_dropShadow" result="shape"/></filter><filter id="filter1_d" width="26" height="40" x="10" y="18" color-interpolation-filters="sRGB" filterUnits="userSpaceOnUse"><feFlood flood-opacity="0" result="BackgroundImageFix"/><feColorMatrix in="SourceAlpha" values="0 0 0 0 0 0 0 0 0 0 0 0 0 0 0 0 0 0 127 0"/><feOffset dy="4"/><feGaussianBlur stdDeviation="2"/><feColorMatrix values="0 0 0 0 0 0 0 0 0 0 0 0 0 0 0 0 0 0 0.2 0"/><feBlend in2="BackgroundImageFix" result="effect1_dropShadow"/><feBlend in="SourceGraphic" in2="effect1_dropShadow" result="shape"/></filter><filter id="filter2_d" width="24" height="39.561" x="10" y="13.439" color-interpolation-filters="sRGB" filterUnits="userSpaceOnUse"><feFlood flood-opacity="0" result="BackgroundImageFix"/><feColorMatrix in="SourceAlpha" values="0 0 0 0 0 0 0 0 0 0 0 0 0 0 0 0 0 0 127 0"/><feOffset dy="1"/><feGaussianBlur stdDeviation="1"/><feColorMatrix values="0 0 0 0 0 0 0 0 0 0 0 0 0 0 0 0 0 0 0.2 0"/><feBlend in2="BackgroundImageFix" result="effect1_dropShadow"/><feBlend in="SourceGraphic" in2="effect1_dropShadow" result="shape"/></filter><filter id="filter3_d" width="24" height="39.561" x="30" y="13.439" color-interpolation-filters="sRGB" filterUnits="userSpaceOnUse"><feFlood flood-opacity="0" result="BackgroundImageFix"/><feColorMatrix in="SourceAlpha" values="0 0 0 0 0 0 0 0 0 0 0 0 0 0 0 0 0 0 127 0"/><feOffset dy="1"/><feGaussianBlur stdDeviation="1"/><feColorMatrix values="0 0 0 0 0 0 0 0 0 0 0 0 0 0 0 0 0 0 0.2 0"/><feBlend in2="BackgroundImageFix" result="effect1_dropShadow"/><feBlend in="SourceGraphic" in2="effect1_dropShadow" result="shape"/></filter><filter id="filter4_d" width="20" height="41.116" x="14" y="11.884" color-interpolation-filters="sRGB" filterUnits="userSpaceOnUse"><feFlood flood-opacity="0" result="BackgroundImageFix"/><feColorMatrix in="SourceAlpha" values="0 0 0 0 0 0 0 0 0 0 0 0 0 0 0 0 0 0 127 0"/><feOffset dy="1"/><feGaussianBlur stdDeviation="1"/><feColorMatrix values="0 0 0 0 0 0 0 0 0 0 0 0 0 0 0 0 0 0 0.2 0"/><feBlend in2="BackgroundImageFix" result="effect1_dropShadow"/><feBlend in="SourceGraphic" in2="effect1_dropShadow" result="shape"/></filter><filter id="filter5_d" width="20" height="41.116" x="30" y="11.884" color-interpolation-filters="sRGB" filterUnits="userSpaceOnUse"><feFlood flood-opacity="0" result="BackgroundImageFix"/><feColorMatrix in="SourceAlpha" values="0 0 0 0 0 0 0 0 0 0 0 0 0 0 0 0 0 0 127 0"/><feOffset dy="1"/><feGaussianBlur stdDeviation="1"/><feColorMatrix values="0 0 0 0 0 0 0 0 0 0 0 0 0 0 0 0 0 0 0.2 0"/><feBlend in2="BackgroundImageFix" result="effect1_dropShadow"/><feBlend in="SourceGraphic" in2="effect1_dropShadow" result="shape"/></filter><linearGradient id="paint0_linear" x1="32" x2="32" y1="64" gradientUnits="userSpaceOnUse"><stop stop-color="#0CBDF6"/><stop offset="1" stop-color="#06C8C8"/></linearGradient></defs></svg>