<svg xmlns="http://www.w3.org/2000/svg" width="64" height="64" fill="none" viewBox="0 0 64 64"><path fill="url(#paint0_linear)" d="M0 12C0 5.37258 5.37258 0 12 0H52C58.6274 0 64 5.37258 64 12V52C64 58.6274 58.6274 64 52 64H12C5.37258 64 0 58.6274 0 52V12Z"/><path fill="#fff" fill-opacity=".8" fill-rule="evenodd" d="M32 20C25.3726 20 20 25.3726 20 32C20 38.6274 25.3726 44 32 44C38.6274 44 44 38.6274 44 32C44 25.3726 38.6274 20 32 20ZM12 32C12 20.9543 20.9543 12 32 12C43.0457 12 52 20.9543 52 32C52 43.0457 43.0457 52 32 52C20.9543 52 12 43.0457 12 32Z" clip-rule="evenodd" filter="url(#filter0_dd)"/><path fill="#fff" fill-opacity=".8" fill-rule="evenodd" d="M19.2721 19.2721C22.6478 15.8964 27.2261 14 32 14C36.7739 14 41.3523 15.8964 44.728 19.2721C48.1036 22.6477 50 27.2261 50 32C50 33.1046 49.1046 34 48 34C46.8955 34 46 33.1046 46 32C46 28.287 44.525 24.726 41.8995 22.1005C39.274 19.475 35.7131 18 32 18C28.287 18 24.726 19.475 22.1005 22.1005C19.475 24.726 18 28.287 18 32C18 33.1046 17.1046 34 16 34C14.8955 34 14 33.1046 14 32C14 27.2261 15.8965 22.6477 19.2721 19.2721Z" clip-rule="evenodd" filter="url(#filter1_dd)"/><path fill="#fff" fill-opacity=".8" fill-rule="evenodd" d="M44.7279 44.7279C41.3523 48.1036 36.7739 50 32 50C27.2261 50 22.6477 48.1036 19.2721 44.7279C15.8964 41.3523 14 36.7739 14 32C14 30.8954 14.8954 30 16 30C17.1046 30 18 30.8954 18 32C18 35.713 19.475 39.274 22.1005 41.8995C24.726 44.525 28.287 46 32 46C35.713 46 39.274 44.525 41.8995 41.8995C42.6806 41.1184 43.9469 41.1184 44.7279 41.8995C45.509 42.6805 45.509 43.9469 44.7279 44.7279Z" clip-rule="evenodd" filter="url(#filter2_dd)"/><path fill="#fff" fill-opacity=".8" fill-rule="evenodd" d="M19.2721 44.7279C15.8964 41.3522 14 36.7739 14 32C14 27.2261 15.8964 22.6477 19.2721 19.272C22.6477 15.8964 27.2261 14 32 14C33.1046 14 34 14.8954 34 16C34 17.1045 33.1046 18 32 18C28.287 18 24.726 19.475 22.1005 22.1005C19.475 24.726 18 28.2869 18 32C18 35.713 19.475 39.274 22.1005 41.8995C24.726 44.525 28.287 46 32 46C33.1046 46 34 46.8954 34 48C34 49.1045 33.1046 50 32 50C27.2261 50 22.6477 48.1035 19.2721 44.7279Z" clip-rule="evenodd" filter="url(#filter3_dd)"/><path fill="#fff" fill-opacity=".8" fill-rule="evenodd" d="M19.2721 44.7279C15.8964 41.3522 14 36.7739 14 32C14 27.2261 15.8964 22.6477 19.2721 19.2721C22.6477 15.8964 27.2261 14 32 14C33.1046 14 34 14.8954 34 16C34 17.1046 33.1046 18 32 18C28.287 18 24.726 19.475 22.1005 22.1005C19.475 24.726 18 28.2869 18 32C18 35.713 19.475 39.274 22.1005 41.8995C22.8816 42.6805 22.8816 43.9469 22.1005 44.7279C21.3195 45.509 20.0531 45.509 19.2721 44.7279Z" clip-rule="evenodd" filter="url(#filter4_dd)"/><defs><filter id="filter0_dd" width="48" height="48" x="8" y="11" color-interpolation-filters="sRGB" filterUnits="userSpaceOnUse"><feFlood flood-opacity="0" result="BackgroundImageFix"/><feColorMatrix in="SourceAlpha" values="0 0 0 0 0 0 0 0 0 0 0 0 0 0 0 0 0 0 127 0"/><feOffset dy="3"/><feGaussianBlur stdDeviation="2"/><feColorMatrix values="0 0 0 0 0 0 0 0 0 0 0 0 0 0 0 0 0 0 0.2 0"/><feBlend in2="BackgroundImageFix" result="effect1_dropShadow"/><feColorMatrix in="SourceAlpha" values="0 0 0 0 0 0 0 0 0 0 0 0 0 0 0 0 0 0 127 0"/><feOffset dy="1"/><feGaussianBlur stdDeviation="1"/><feColorMatrix values="0 0 0 0 0 0 0 0 0 0 0 0 0 0 0 0 0 0 0.1 0"/><feBlend in2="effect1_dropShadow" result="effect2_dropShadow"/><feBlend in="SourceGraphic" in2="effect2_dropShadow" result="shape"/></filter><filter id="filter1_dd" width="40" height="24" x="12" y="13" color-interpolation-filters="sRGB" filterUnits="userSpaceOnUse"><feFlood flood-opacity="0" result="BackgroundImageFix"/><feColorMatrix in="SourceAlpha" values="0 0 0 0 0 0 0 0 0 0 0 0 0 0 0 0 0 0 127 0"/><feOffset dy="1"/><feGaussianBlur stdDeviation="1"/><feColorMatrix values="0 0 0 0 0 0 0 0 0 0 0 0 0 0 0 0 0 0 0.2 0"/><feBlend in2="BackgroundImageFix" result="effect1_dropShadow"/><feColorMatrix in="SourceAlpha" values="0 0 0 0 0 0 0 0 0 0 0 0 0 0 0 0 0 0 127 0"/><feOffset dy="1"/><feGaussianBlur stdDeviation=".5"/><feColorMatrix values="0 0 0 0 0 0 0 0 0 0 0 0 0 0 0 0 0 0 0.1 0"/><feBlend in2="effect1_dropShadow" result="effect2_dropShadow"/><feBlend in="SourceGraphic" in2="effect2_dropShadow" result="shape"/></filter><filter id="filter2_dd" width="35.314" height="24" x="12" y="29" color-interpolation-filters="sRGB" filterUnits="userSpaceOnUse"><feFlood flood-opacity="0" result="BackgroundImageFix"/><feColorMatrix in="SourceAlpha" values="0 0 0 0 0 0 0 0 0 0 0 0 0 0 0 0 0 0 127 0"/><feOffset dy="1"/><feGaussianBlur stdDeviation="1"/><feColorMatrix values="0 0 0 0 0 0 0 0 0 0 0 0 0 0 0 0 0 0 0.2 0"/><feBlend in2="BackgroundImageFix" result="effect1_dropShadow"/><feColorMatrix in="SourceAlpha" values="0 0 0 0 0 0 0 0 0 0 0 0 0 0 0 0 0 0 127 0"/><feOffset dy="1"/><feGaussianBlur stdDeviation=".5"/><feColorMatrix values="0 0 0 0 0 0 0 0 0 0 0 0 0 0 0 0 0 0 0.1 0"/><feBlend in2="effect1_dropShadow" result="effect2_dropShadow"/><feBlend in="SourceGraphic" in2="effect2_dropShadow" result="shape"/></filter><filter id="filter3_dd" width="24" height="40" x="12" y="13" color-interpolation-filters="sRGB" filterUnits="userSpaceOnUse"><feFlood flood-opacity="0" result="BackgroundImageFix"/><feColorMatrix in="SourceAlpha" values="0 0 0 0 0 0 0 0 0 0 0 0 0 0 0 0 0 0 127 0"/><feOffset dy="1"/><feGaussianBlur stdDeviation="1"/><feColorMatrix values="0 0 0 0 0 0 0 0 0 0 0 0 0 0 0 0 0 0 0.2 0"/><feBlend in2="BackgroundImageFix" result="effect1_dropShadow"/><feColorMatrix in="SourceAlpha" values="0 0 0 0 0 0 0 0 0 0 0 0 0 0 0 0 0 0 127 0"/><feOffset dy="1"/><feGaussianBlur stdDeviation=".5"/><feColorMatrix values="0 0 0 0 0 0 0 0 0 0 0 0 0 0 0 0 0 0 0.1 0"/><feBlend in2="effect1_dropShadow" result="effect2_dropShadow"/><feBlend in="SourceGraphic" in2="effect2_dropShadow" result="shape"/></filter><filter id="filter4_dd" width="24" height="35.314" x="12" y="13" color-interpolation-filters="sRGB" filterUnits="userSpaceOnUse"><feFlood flood-opacity="0" result="BackgroundImageFix"/><feColorMatrix in="SourceAlpha" values="0 0 0 0 0 0 0 0 0 0 0 0 0 0 0 0 0 0 127 0"/><feOffset dy="1"/><feGaussianBlur stdDeviation="1"/><feColorMatrix values="0 0 0 0 0 0 0 0 0 0 0 0 0 0 0 0 0 0 0.2 0"/><feBlend in2="BackgroundImageFix" result="effect1_dropShadow"/><feColorMatrix in="SourceAlpha" values="0 0 0 0 0 0 0 0 0 0 0 0 0 0 0 0 0 0 127 0"/><feOffset dy="1"/><feGaussianBlur stdDeviation=".5"/><feColorMatrix values="0 0 0 0 0 0 0 0 0 0 0 0 0 0 0 0 0 0 0.1 0"/><feBlend in2="effect1_dropShadow" result="effect2_dropShadow"/><feBlend in="SourceGraphic" in2="effect2_dropShadow" result="shape"/></filter><linearGradient id="paint0_linear" x1="32" x2="32" y2="64" gradientUnits="userSpaceOnUse"><stop stop-color="#686AF0"/><stop offset="1" stop-color="#A45DF4"/></linearGradient></defs></svg>