<svg id="SvgjsSvg1026" width="288" height="288" xmlns="http://www.w3.org/2000/svg" version="1.1" xmlns:xlink="http://www.w3.org/1999/xlink" xmlns:svgjs="http://svgjs.com/svgjs"><defs id="SvgjsDefs1027"></defs><g id="SvgjsG1028" transform="matrix(1,0,0,1,0,0)"><svg xmlns="http://www.w3.org/2000/svg" enable-background="new 0 0 24 24" viewBox="0 0 24 24" width="288" height="288"><path fill="none" stroke="#ffffff" stroke-linecap="round" stroke-linejoin="round" d="M3,19.5h18c0.8,0,1.5,0.7,1.5,1.5v1.5l0,0h-21l0,0V21C1.5,20.2,2.2,19.5,3,19.5z" class="colorStroke303c42 svgStroke"></path><rect width="3" height="10" x="3.5" y="9.5" fill="none" stroke="#ffffff" stroke-linecap="round" stroke-linejoin="round" class="colorStroke303c42 svgStroke"></rect><rect width="3" height="10" x="10.5" y="9.5" fill="none" stroke="#ffffff" stroke-linecap="round" stroke-linejoin="round" class="colorStroke303c42 svgStroke"></rect><rect width="3" height="10" x="17.5" y="9.5" fill="none" stroke="#ffffff" stroke-linecap="round" stroke-linejoin="round" class="colorStroke303c42 svgStroke"></rect><circle cx="12" cy="6" r="1.5" fill="none" stroke="#ffffff" stroke-linecap="round" stroke-linejoin="round" class="colorStroke303c42 svgStroke"></circle><path fill="none" stroke="#ffffff" stroke-linecap="round" stroke-linejoin="round" d="M12.7,1.7c-0.4-0.3-1-0.3-1.4,0L1.5,7.5v2h21v-2L12.7,1.7z" class="colorStroke303c42 svgStroke"></path></svg></g></svg>