<svg xmlns="http://www.w3.org/2000/svg" width="64" height="64" fill="none" viewBox="0 0 64 64"><path fill="url(#paint0_linear)" d="M0 12C0 5.37258 5.37258 0 12 0H52C58.6274 0 64 5.37258 64 12V52C64 58.6274 58.6274 64 52 64H12C5.37258 64 0 58.6274 0 52V12Z"/><path fill="#fff" fill-opacity=".8" d="M38 32C38 35.3137 35.3137 38 32 38C28.6863 38 26 35.3137 26 32C26 28.6863 28.6863 26 32 26C35.3137 26 38 28.6863 38 32Z" filter="url(#filter0_dd)"/><path fill="#fff" fill-opacity=".8" d="M36 32C36 34.2091 34.2091 36 32 36C29.7909 36 28 34.2091 28 32C28 29.7909 29.7909 28 32 28C34.2091 28 36 29.7909 36 32Z" filter="url(#filter1_dd)"/><path fill="#fff" fill-opacity=".8" fill-rule="evenodd" d="M30 18.1418C24.0363 18.9948 19.285 23.6064 18.2226 29.5H23.3518C24.2536 26.3747 26.8038 23.9483 30 23.223V18.1418ZM18.0794 33.5C18.7575 39.8663 23.7029 44.9575 30 45.8582V40.777C26.4703 39.976 23.7285 37.1005 23.1244 33.5H18.0794ZM34 45.8582C40.2971 44.9575 45.2425 39.8663 45.9206 33.5H40.8756C40.2715 37.1005 37.5297 39.976 34 40.777V45.8582ZM45.7774 29.5C44.715 23.6064 39.9637 18.9948 34 18.1418V23.223C37.1962 23.9483 39.7464 26.3747 40.6482 29.5H45.7774Z" clip-rule="evenodd" filter="url(#filter2_dd)"/><path fill="#fff" fill-opacity=".8" fill-rule="evenodd" d="M30 12.0988C20.7185 13.0203 13.3036 20.2872 12.1547 29.5H15.1825C16.2958 21.9464 22.3771 16.0098 30 15.1164V12.0988ZM12.0554 33.5C12.7733 43.1827 20.3851 50.9466 30 51.9013V48.8836C22.0437 47.9512 15.7668 41.5247 15.0653 33.5H12.0554ZM34 51.9013C43.6149 50.9466 51.2267 43.1827 51.9446 33.5H48.9347C48.2332 41.5247 41.9563 47.9512 34 48.8836V51.9013ZM51.8453 29.5C50.6964 20.2872 43.2816 13.0203 34 12.0988V15.1164C41.6229 16.0098 47.7042 21.9464 48.8175 29.5H51.8453Z" clip-rule="evenodd" filter="url(#filter3_dd)"/><defs><filter id="filter0_dd" width="20" height="20" x="22" y="25" color-interpolation-filters="sRGB" filterUnits="userSpaceOnUse"><feFlood flood-opacity="0" result="BackgroundImageFix"/><feColorMatrix in="SourceAlpha" values="0 0 0 0 0 0 0 0 0 0 0 0 0 0 0 0 0 0 127 0"/><feOffset dy="3"/><feGaussianBlur stdDeviation="2"/><feColorMatrix values="0 0 0 0 0 0 0 0 0 0 0 0 0 0 0 0 0 0 0.2 0"/><feBlend in2="BackgroundImageFix" result="effect1_dropShadow"/><feColorMatrix in="SourceAlpha" values="0 0 0 0 0 0 0 0 0 0 0 0 0 0 0 0 0 0 127 0"/><feOffset dy="1"/><feGaussianBlur stdDeviation="1"/><feColorMatrix values="0 0 0 0 0 0 0 0 0 0 0 0 0 0 0 0 0 0 0.1 0"/><feBlend in2="effect1_dropShadow" result="effect2_dropShadow"/><feBlend in="SourceGraphic" in2="effect2_dropShadow" result="shape"/></filter><filter id="filter1_dd" width="12" height="12" x="26" y="27" color-interpolation-filters="sRGB" filterUnits="userSpaceOnUse"><feFlood flood-opacity="0" result="BackgroundImageFix"/><feColorMatrix in="SourceAlpha" values="0 0 0 0 0 0 0 0 0 0 0 0 0 0 0 0 0 0 127 0"/><feOffset dy="1"/><feGaussianBlur stdDeviation="1"/><feColorMatrix values="0 0 0 0 0 0 0 0 0 0 0 0 0 0 0 0 0 0 0.2 0"/><feBlend in2="BackgroundImageFix" result="effect1_dropShadow"/><feColorMatrix in="SourceAlpha" values="0 0 0 0 0 0 0 0 0 0 0 0 0 0 0 0 0 0 127 0"/><feOffset dy="1"/><feGaussianBlur stdDeviation=".5"/><feColorMatrix values="0 0 0 0 0 0 0 0 0 0 0 0 0 0 0 0 0 0 0.1 0"/><feBlend in2="effect1_dropShadow" result="effect2_dropShadow"/><feBlend in="SourceGraphic" in2="effect2_dropShadow" result="shape"/></filter><filter id="filter2_dd" width="31.841" height="31.716" x="16.079" y="17.142" color-interpolation-filters="sRGB" filterUnits="userSpaceOnUse"><feFlood flood-opacity="0" result="BackgroundImageFix"/><feColorMatrix in="SourceAlpha" values="0 0 0 0 0 0 0 0 0 0 0 0 0 0 0 0 0 0 127 0"/><feOffset dy="1"/><feGaussianBlur stdDeviation="1"/><feColorMatrix values="0 0 0 0 0 0 0 0 0 0 0 0 0 0 0 0 0 0 0.2 0"/><feBlend in2="BackgroundImageFix" result="effect1_dropShadow"/><feColorMatrix in="SourceAlpha" values="0 0 0 0 0 0 0 0 0 0 0 0 0 0 0 0 0 0 127 0"/><feOffset dy="1"/><feGaussianBlur stdDeviation=".5"/><feColorMatrix values="0 0 0 0 0 0 0 0 0 0 0 0 0 0 0 0 0 0 0.1 0"/><feBlend in2="effect1_dropShadow" result="effect2_dropShadow"/><feBlend in="SourceGraphic" in2="effect2_dropShadow" result="shape"/></filter><filter id="filter3_dd" width="43.889" height="43.803" x="10.055" y="11.099" color-interpolation-filters="sRGB" filterUnits="userSpaceOnUse"><feFlood flood-opacity="0" result="BackgroundImageFix"/><feColorMatrix in="SourceAlpha" values="0 0 0 0 0 0 0 0 0 0 0 0 0 0 0 0 0 0 127 0"/><feOffset dy="1"/><feGaussianBlur stdDeviation="1"/><feColorMatrix values="0 0 0 0 0 0 0 0 0 0 0 0 0 0 0 0 0 0 0.2 0"/><feBlend in2="BackgroundImageFix" result="effect1_dropShadow"/><feColorMatrix in="SourceAlpha" values="0 0 0 0 0 0 0 0 0 0 0 0 0 0 0 0 0 0 127 0"/><feOffset dy="1"/><feGaussianBlur stdDeviation=".5"/><feColorMatrix values="0 0 0 0 0 0 0 0 0 0 0 0 0 0 0 0 0 0 0.1 0"/><feBlend in2="effect1_dropShadow" result="effect2_dropShadow"/><feBlend in="SourceGraphic" in2="effect2_dropShadow" result="shape"/></filter><linearGradient id="paint0_linear" x1="32" x2="32" y2="64" gradientUnits="userSpaceOnUse"><stop stop-color="#FC954B"/><stop offset="1" stop-color="#F45DD3"/></linearGradient></defs></svg>