<svg id="SvgjsSvg1042" width="288" height="288" xmlns="http://www.w3.org/2000/svg" version="1.1" xmlns:xlink="http://www.w3.org/1999/xlink" xmlns:svgjs="http://svgjs.com/svgjs"><defs id="SvgjsDefs1043"></defs><g id="SvgjsG1044" transform="matrix(1,0,0,1,0,0)"><svg xmlns="http://www.w3.org/2000/svg" width="288" height="288" fill-rule="evenodd" clip-rule="evenodd" image-rendering="optimizeQuality" shape-rendering="geometricPrecision" text-rendering="geometricPrecision" version="1.0" viewBox="0 0 512 512"><path d="M423 337c0 91-74 166-166 166-91 0-166-74-166-166 0-89 120-252 163-323h2c31 52 166 237 166 323zm-70 1c-1 52-43 95-95 95s-95-42-95-95h191zm28-3c0 68-55 124-124 124-68 0-124-55-124-124 0-66 89-188 121-241h2c23 39 124 177 124 241z" fill="#ffffff" class="color000 svgShape"></path></svg></g></svg>