<svg id="SvgjsSvg1031" width="288" height="288" xmlns="http://www.w3.org/2000/svg" version="1.1" xmlns:xlink="http://www.w3.org/1999/xlink" xmlns:svgjs="http://svgjs.com/svgjs"><defs id="SvgjsDefs1032"></defs><g id="SvgjsG1033" transform="matrix(1,0,0,1,0,0)"><svg xmlns="http://www.w3.org/2000/svg" viewBox="0 0 24 24" width="288" height="288"><path d="M3 11h7a1 1 0 0 0 1-1V3a1 1 0 0 0-1-1H3A1 1 0 0 0 2 3v7A1 1 0 0 0 3 11zM4 4H9V9H4zM22 3a1 1 0 0 0-1-1H14a1 1 0 0 0-1 1v7a1 1 0 0 0 1 1h7a1 1 0 0 0 1-1zM20 9H15V4h5zM2 21a1 1 0 0 0 1 1h7a1 1 0 0 0 1-1V14a1 1 0 0 0-1-1H3a1 1 0 0 0-1 1zm2-6H9v5H4zM22 21V14a1 1 0 0 0-1-1H14a1 1 0 0 0-1 1v7a1 1 0 0 0 1 1h7A1 1 0 0 0 22 21zm-2-1H15V15h5z" fill="#ffffff" class="color000 svgShape"></path></svg></g></svg>