<svg xmlns="http://www.w3.org/2000/svg" width="64" height="64" fill="none" viewBox="0 0 64 64"><path fill="url(#paint0_linear)" d="M0 12C0 5.37258 5.37258 0 12 0H52C58.6274 0 64 5.37258 64 12V52C64 58.6274 58.6274 64 52 64H12C5.37258 64 0 58.6274 0 52V12Z"/><path fill="#fff" fill-opacity=".8" d="M32 52C29.2386 52 27 49.7614 27 47L27 25C27 22.2386 29.2386 20 32 20C34.7614 20 37 22.2386 37 25L37 47C37 49.7614 34.7614 52 32 52Z" filter="url(#filter0_d)"/><path fill="#fff" fill-opacity=".8" d="M17 52C14.2386 52 12 49.7614 12 47L12 33C12 30.2386 14.2386 28 17 28C19.7614 28 22 30.2386 22 33L22 47C22 49.7614 19.7614 52 17 52Z" filter="url(#filter1_d)"/><path fill="#fff" fill-opacity=".8" d="M17 51C14.7909 51 13 49.2091 13 47L13 41C13 38.7909 14.7909 37 17 37C19.2091 37 21 38.7909 21 41L21 47C21 49.2091 19.2091 51 17 51Z" filter="url(#filter2_d)"/><path fill="#fff" fill-opacity=".8" d="M32 51C29.7909 51 28 49.2091 28 47L28 36C28 33.7909 29.7909 32 32 32C34.2091 32 36 33.7909 36 36L36 47C36 49.2091 34.2091 51 32 51Z" filter="url(#filter3_d)"/><path fill="#fff" fill-opacity=".8" d="M47 52C44.2386 52 42 49.7614 42 47L42 17C42 14.2386 44.2386 12 47 12C49.7614 12 52 14.2386 52 17L52 47C52 49.7614 49.7614 52 47 52Z" filter="url(#filter4_d)"/><path fill="#fff" fill-opacity=".8" d="M47 51C44.7909 51 43 49.2091 43 47L43 32C43 29.7909 44.7909 28 47 28C49.2091 28 51 29.7909 51 32L51 47C51 49.2091 49.2091 51 47 51Z" filter="url(#filter5_d)"/><path fill="#fff" fill-opacity=".8" d="M17 50C15.3431 50 14 48.6569 14 47C14 45.3431 15.3431 44 17 44C18.6569 44 20 45.3431 20 47C20 48.6569 18.6569 50 17 50Z" filter="url(#filter6_d)"/><path fill="#fff" fill-opacity=".8" d="M32 50C30.3431 50 29 48.6569 29 47C29 45.3431 30.3431 44 32 44C33.6569 44 35 45.3431 35 47C35 48.6569 33.6569 50 32 50Z" filter="url(#filter7_d)"/><path fill="#fff" fill-opacity=".8" d="M47 50C45.3431 50 44 48.6569 44 47C44 45.3431 45.3431 44 47 44C48.6569 44 50 45.3431 50 47C50 48.6569 48.6569 50 47 50Z" filter="url(#filter8_d)"/><defs><filter id="filter0_d" width="18" height="40" x="23" y="20" color-interpolation-filters="sRGB" filterUnits="userSpaceOnUse"><feFlood flood-opacity="0" result="BackgroundImageFix"/><feColorMatrix in="SourceAlpha" values="0 0 0 0 0 0 0 0 0 0 0 0 0 0 0 0 0 0 127 0"/><feOffset dy="4"/><feGaussianBlur stdDeviation="2"/><feColorMatrix values="0 0 0 0 0 0 0 0 0 0 0 0 0 0 0 0 0 0 0.2 0"/><feBlend in2="BackgroundImageFix" result="effect1_dropShadow"/><feBlend in="SourceGraphic" in2="effect1_dropShadow" result="shape"/></filter><filter id="filter1_d" width="18" height="32" x="8" y="28" color-interpolation-filters="sRGB" filterUnits="userSpaceOnUse"><feFlood flood-opacity="0" result="BackgroundImageFix"/><feColorMatrix in="SourceAlpha" values="0 0 0 0 0 0 0 0 0 0 0 0 0 0 0 0 0 0 127 0"/><feOffset dy="4"/><feGaussianBlur stdDeviation="2"/><feColorMatrix values="0 0 0 0 0 0 0 0 0 0 0 0 0 0 0 0 0 0 0.2 0"/><feBlend in2="BackgroundImageFix" result="effect1_dropShadow"/><feBlend in="SourceGraphic" in2="effect1_dropShadow" result="shape"/></filter><filter id="filter2_d" width="12" height="18" x="11" y="36" color-interpolation-filters="sRGB" filterUnits="userSpaceOnUse"><feFlood flood-opacity="0" result="BackgroundImageFix"/><feColorMatrix in="SourceAlpha" values="0 0 0 0 0 0 0 0 0 0 0 0 0 0 0 0 0 0 127 0"/><feOffset dy="1"/><feGaussianBlur stdDeviation="1"/><feColorMatrix values="0 0 0 0 0 0 0 0 0 0 0 0 0 0 0 0 0 0 0.2 0"/><feBlend in2="BackgroundImageFix" result="effect1_dropShadow"/><feBlend in="SourceGraphic" in2="effect1_dropShadow" result="shape"/></filter><filter id="filter3_d" width="12" height="23" x="26" y="31" color-interpolation-filters="sRGB" filterUnits="userSpaceOnUse"><feFlood flood-opacity="0" result="BackgroundImageFix"/><feColorMatrix in="SourceAlpha" values="0 0 0 0 0 0 0 0 0 0 0 0 0 0 0 0 0 0 127 0"/><feOffset dy="1"/><feGaussianBlur stdDeviation="1"/><feColorMatrix values="0 0 0 0 0 0 0 0 0 0 0 0 0 0 0 0 0 0 0.2 0"/><feBlend in2="BackgroundImageFix" result="effect1_dropShadow"/><feBlend in="SourceGraphic" in2="effect1_dropShadow" result="shape"/></filter><filter id="filter4_d" width="18" height="48" x="38" y="12" color-interpolation-filters="sRGB" filterUnits="userSpaceOnUse"><feFlood flood-opacity="0" result="BackgroundImageFix"/><feColorMatrix in="SourceAlpha" values="0 0 0 0 0 0 0 0 0 0 0 0 0 0 0 0 0 0 127 0"/><feOffset dy="4"/><feGaussianBlur stdDeviation="2"/><feColorMatrix values="0 0 0 0 0 0 0 0 0 0 0 0 0 0 0 0 0 0 0.2 0"/><feBlend in2="BackgroundImageFix" result="effect1_dropShadow"/><feBlend in="SourceGraphic" in2="effect1_dropShadow" result="shape"/></filter><filter id="filter5_d" width="12" height="27" x="41" y="27" color-interpolation-filters="sRGB" filterUnits="userSpaceOnUse"><feFlood flood-opacity="0" result="BackgroundImageFix"/><feColorMatrix in="SourceAlpha" values="0 0 0 0 0 0 0 0 0 0 0 0 0 0 0 0 0 0 127 0"/><feOffset dy="1"/><feGaussianBlur stdDeviation="1"/><feColorMatrix values="0 0 0 0 0 0 0 0 0 0 0 0 0 0 0 0 0 0 0.2 0"/><feBlend in2="BackgroundImageFix" result="effect1_dropShadow"/><feBlend in="SourceGraphic" in2="effect1_dropShadow" result="shape"/></filter><filter id="filter6_d" width="10" height="10" x="12" y="43" color-interpolation-filters="sRGB" filterUnits="userSpaceOnUse"><feFlood flood-opacity="0" result="BackgroundImageFix"/><feColorMatrix in="SourceAlpha" values="0 0 0 0 0 0 0 0 0 0 0 0 0 0 0 0 0 0 127 0"/><feOffset dy="1"/><feGaussianBlur stdDeviation="1"/><feColorMatrix values="0 0 0 0 0 0 0 0 0 0 0 0 0 0 0 0 0 0 0.2 0"/><feBlend in2="BackgroundImageFix" result="effect1_dropShadow"/><feBlend in="SourceGraphic" in2="effect1_dropShadow" result="shape"/></filter><filter id="filter7_d" width="10" height="10" x="27" y="43" color-interpolation-filters="sRGB" filterUnits="userSpaceOnUse"><feFlood flood-opacity="0" result="BackgroundImageFix"/><feColorMatrix in="SourceAlpha" values="0 0 0 0 0 0 0 0 0 0 0 0 0 0 0 0 0 0 127 0"/><feOffset dy="1"/><feGaussianBlur stdDeviation="1"/><feColorMatrix values="0 0 0 0 0 0 0 0 0 0 0 0 0 0 0 0 0 0 0.2 0"/><feBlend in2="BackgroundImageFix" result="effect1_dropShadow"/><feBlend in="SourceGraphic" in2="effect1_dropShadow" result="shape"/></filter><filter id="filter8_d" width="10" height="10" x="42" y="43" color-interpolation-filters="sRGB" filterUnits="userSpaceOnUse"><feFlood flood-opacity="0" result="BackgroundImageFix"/><feColorMatrix in="SourceAlpha" values="0 0 0 0 0 0 0 0 0 0 0 0 0 0 0 0 0 0 127 0"/><feOffset dy="1"/><feGaussianBlur stdDeviation="1"/><feColorMatrix values="0 0 0 0 0 0 0 0 0 0 0 0 0 0 0 0 0 0 0.2 0"/><feBlend in2="BackgroundImageFix" result="effect1_dropShadow"/><feBlend in="SourceGraphic" in2="effect1_dropShadow" result="shape"/></filter><linearGradient id="paint0_linear" x2="64" y2="64" gradientUnits="userSpaceOnUse"><stop stop-color="#F24141"/><stop offset="1" stop-color="#FC754B"/></linearGradient></defs></svg>