<svg xmlns="http://www.w3.org/2000/svg" viewBox="0 0 48 48"><path fill="#70a9ed" d="M31 15a1 1 0 0 1-1-1V11H18v3a1 1 0 0 1-2 0V10a1 1 0 0 1 1-1H31a1 1 0 0 1 1 1v4A1 1 0 0 1 31 15zM3 17V38a1 1 0 0 0 1 1H44a1 1 0 0 0 1-1V17z"/><path fill="#b3d9ff" d="M4,13H44a1,1,0,0,1,1,1v3A10,10,0,0,1,35,27H13A10,10,0,0,1,3,17V14A1,1,0,0,1,4,13Z"/><rect width="6" height="5" x="13" y="26" fill="#b3d9ff" rx="1"/><rect width="3" height="3" x="14.5" y="27" fill="#417ace" rx=".5"/><rect width="6" height="5" x="29" y="26" fill="#b3d9ff" rx="1"/><rect width="3" height="3" x="30.5" y="27" fill="#417ace" rx=".5"/></svg>