<svg xmlns="http://www.w3.org/2000/svg" width="64" height="64" fill="none" viewBox="0 0 64 64"><path fill="url(#paint0_linear)" d="M0 12C0 5.37258 5.37258 0 12 0H52C58.6274 0 64 5.37258 64 12V52C64 58.6274 58.6274 64 52 64H12C5.37258 64 0 58.6274 0 52V12Z"/><path fill="#fff" fill-opacity=".8" d="M12 25L16.2004 19.5394C16.7266 18.8554 17.401 18.2995 18.1729 17.9135C20.4413 16.7794 23.1858 17.277 24.9115 19.1355L26.6057 20.9599C27.8325 22.2811 29.4696 23.1492 31.2516 23.4233L33.6943 23.7991C34.5589 23.9321 35.4395 23.9224 36.301 23.7704L41.6523 22.8261C42.8676 22.6116 44.1161 22.6812 45.3 23.0294L52 25V44C52 46.2091 50.2091 48 48 48H16C13.7909 48 12 46.2091 12 44V25Z" filter="url(#filter0_dd)"/><path fill="#fff" fill-opacity=".8" d="M12 33L15.304 27.7136C16.0873 26.4603 17.9127 26.4603 18.696 27.7136L21.6048 32.3677C21.8597 32.7755 22.253 33.0778 22.7126 33.2193L27.4005 34.6617C28.0812 34.8711 28.8219 34.7028 29.3453 34.2198L33.8115 30.0971C34.5047 29.4572 35.5507 29.3887 36.3214 29.9328L42.0066 33.9459C42.8522 34.5427 44.0135 34.3959 44.6839 33.6072L52 25V44C52 46.2091 50.2091 48 48 48H16C13.7909 48 12 46.2091 12 44V33Z" filter="url(#filter1_dd)"/><path fill="#fff" fill-opacity=".8" d="M52 33L47.3627 39.4923C47.1407 39.803 46.7612 39.9602 46.3845 39.8974L41.4135 39.0689C41.149 39.0248 40.8778 39.0888 40.661 39.2466L36.0882 42.5722C35.7375 42.8273 35.2625 42.8273 34.9118 42.5722L30.518 39.3767C30.2023 39.1471 29.7818 39.1222 29.4412 39.3129L26.1869 41.1353C24.7231 41.9551 22.9032 41.7742 21.6294 40.6823L18.9872 38.4176C18.6903 38.1631 18.2724 38.1051 17.9174 38.2689L12 41V44C12 46.2091 13.7909 48 16 48H48C50.2091 48 52 46.2091 52 44V33Z" filter="url(#filter2_dd)"/><defs><filter id="filter0_dd" width="48" height="38.69" x="8" y="16.31" color-interpolation-filters="sRGB" filterUnits="userSpaceOnUse"><feFlood flood-opacity="0" result="BackgroundImageFix"/><feColorMatrix in="SourceAlpha" values="0 0 0 0 0 0 0 0 0 0 0 0 0 0 0 0 0 0 127 0"/><feOffset dy="3"/><feGaussianBlur stdDeviation="2"/><feColorMatrix values="0 0 0 0 0 0 0 0 0 0 0 0 0 0 0 0 0 0 0.2 0"/><feBlend in2="BackgroundImageFix" result="effect1_dropShadow"/><feColorMatrix in="SourceAlpha" values="0 0 0 0 0 0 0 0 0 0 0 0 0 0 0 0 0 0 127 0"/><feOffset dy="1"/><feGaussianBlur stdDeviation="1"/><feColorMatrix values="0 0 0 0 0 0 0 0 0 0 0 0 0 0 0 0 0 0 0.1 0"/><feBlend in2="effect1_dropShadow" result="effect2_dropShadow"/><feBlend in="SourceGraphic" in2="effect2_dropShadow" result="shape"/></filter><filter id="filter1_dd" width="44" height="27" x="10" y="24" color-interpolation-filters="sRGB" filterUnits="userSpaceOnUse"><feFlood flood-opacity="0" result="BackgroundImageFix"/><feColorMatrix in="SourceAlpha" values="0 0 0 0 0 0 0 0 0 0 0 0 0 0 0 0 0 0 127 0"/><feOffset dy="1"/><feGaussianBlur stdDeviation="1"/><feColorMatrix values="0 0 0 0 0 0 0 0 0 0 0 0 0 0 0 0 0 0 0.2 0"/><feBlend in2="BackgroundImageFix" result="effect1_dropShadow"/><feColorMatrix in="SourceAlpha" values="0 0 0 0 0 0 0 0 0 0 0 0 0 0 0 0 0 0 127 0"/><feOffset dy="1"/><feGaussianBlur stdDeviation=".5"/><feColorMatrix values="0 0 0 0 0 0 0 0 0 0 0 0 0 0 0 0 0 0 0.1 0"/><feBlend in2="effect1_dropShadow" result="effect2_dropShadow"/><feBlend in="SourceGraphic" in2="effect2_dropShadow" result="shape"/></filter><filter id="filter2_dd" width="44" height="19" x="10" y="32" color-interpolation-filters="sRGB" filterUnits="userSpaceOnUse"><feFlood flood-opacity="0" result="BackgroundImageFix"/><feColorMatrix in="SourceAlpha" values="0 0 0 0 0 0 0 0 0 0 0 0 0 0 0 0 0 0 127 0"/><feOffset dy="1"/><feGaussianBlur stdDeviation="1"/><feColorMatrix values="0 0 0 0 0 0 0 0 0 0 0 0 0 0 0 0 0 0 0.2 0"/><feBlend in2="BackgroundImageFix" result="effect1_dropShadow"/><feColorMatrix in="SourceAlpha" values="0 0 0 0 0 0 0 0 0 0 0 0 0 0 0 0 0 0 127 0"/><feOffset dy="1"/><feGaussianBlur stdDeviation=".5"/><feColorMatrix values="0 0 0 0 0 0 0 0 0 0 0 0 0 0 0 0 0 0 0.1 0"/><feBlend in2="effect1_dropShadow" result="effect2_dropShadow"/><feBlend in="SourceGraphic" in2="effect2_dropShadow" result="shape"/></filter><linearGradient id="paint0_linear" x1="32" x2="32" y2="64" gradientUnits="userSpaceOnUse"><stop stop-color="#686AF0"/><stop offset="1" stop-color="#A45DF4"/></linearGradient></defs></svg>