<svg xmlns="http://www.w3.org/2000/svg" width="64" height="64" fill="none" viewBox="0 0 64 64"><path fill="url(#paint0_linear)" d="M0 12C0 5.37258 5.37258 0 12 0H52C58.6274 0 64 5.37258 64 12V52C64 58.6274 58.6274 64 52 64H12C5.37258 64 0 58.6274 0 52V12Z"/><path fill="#fff" fill-opacity=".8" d="M44.1716 20.8284C45.7337 19.2663 48.2663 19.2663 49.8284 20.8284C51.3905 22.3905 51.3905 24.9232 49.8284 26.4853L32.8579 43.4558C31.2958 45.0179 28.7631 45.0179 27.201 43.4558C25.6389 41.8937 25.6389 39.3611 27.201 37.799L44.1716 20.8284Z" filter="url(#filter0_dd)"/><path fill="#fff" fill-opacity=".8" d="M14.8284 31.8284C13.2663 30.2663 13.2663 27.7337 14.8284 26.1716C16.3905 24.6095 18.9232 24.6095 20.4853 26.1716L31.799 37.4853C33.3611 39.0474 33.3611 41.58 31.799 43.1421C30.2369 44.7042 27.7042 44.7042 26.1421 43.1421L14.8284 31.8284Z" filter="url(#filter1_dd)"/><path fill="#fff" fill-opacity=".8" d="M20.8284 37.8284C19.2663 36.2663 19.2663 33.7337 20.8284 32.1716C22.3905 30.6095 24.9232 30.6095 26.4853 32.1716L32.1421 37.8284C33.7042 39.3905 33.7042 41.9232 32.1421 43.4853C30.58 45.0474 28.0474 45.0474 26.4853 43.4853L20.8284 37.8284Z" filter="url(#filter2_dd)"/><path fill="#fff" fill-opacity=".8" d="M38.1716 26.8284C39.7337 25.2663 42.2663 25.2663 43.8284 26.8284C45.3905 28.3905 45.3905 30.9232 43.8284 32.4853L32.5147 43.799C30.9526 45.3611 28.42 45.3611 26.8579 43.799C25.2958 42.2369 25.2958 39.7042 26.8579 38.1421L38.1716 26.8284Z" filter="url(#filter3_dd)"/><defs><filter id="filter0_dd" width="32.971" height="32.971" x="22.029" y="18.657" color-interpolation-filters="sRGB" filterUnits="userSpaceOnUse"><feFlood flood-opacity="0" result="BackgroundImageFix"/><feColorMatrix in="SourceAlpha" values="0 0 0 0 0 0 0 0 0 0 0 0 0 0 0 0 0 0 127 0"/><feOffset dy="3"/><feGaussianBlur stdDeviation="2"/><feColorMatrix values="0 0 0 0 0 0 0 0 0 0 0 0 0 0 0 0 0 0 0.2 0"/><feBlend in2="BackgroundImageFix" result="effect1_dropShadow"/><feColorMatrix in="SourceAlpha" values="0 0 0 0 0 0 0 0 0 0 0 0 0 0 0 0 0 0 127 0"/><feOffset dy="1"/><feGaussianBlur stdDeviation="1"/><feColorMatrix values="0 0 0 0 0 0 0 0 0 0 0 0 0 0 0 0 0 0 0.1 0"/><feBlend in2="effect1_dropShadow" result="effect2_dropShadow"/><feBlend in="SourceGraphic" in2="effect2_dropShadow" result="shape"/></filter><filter id="filter1_dd" width="27.314" height="27.314" x="9.657" y="24" color-interpolation-filters="sRGB" filterUnits="userSpaceOnUse"><feFlood flood-opacity="0" result="BackgroundImageFix"/><feColorMatrix in="SourceAlpha" values="0 0 0 0 0 0 0 0 0 0 0 0 0 0 0 0 0 0 127 0"/><feOffset dy="3"/><feGaussianBlur stdDeviation="2"/><feColorMatrix values="0 0 0 0 0 0 0 0 0 0 0 0 0 0 0 0 0 0 0.2 0"/><feBlend in2="BackgroundImageFix" result="effect1_dropShadow"/><feColorMatrix in="SourceAlpha" values="0 0 0 0 0 0 0 0 0 0 0 0 0 0 0 0 0 0 127 0"/><feOffset dy="1"/><feGaussianBlur stdDeviation="1"/><feColorMatrix values="0 0 0 0 0 0 0 0 0 0 0 0 0 0 0 0 0 0 0.1 0"/><feBlend in2="effect1_dropShadow" result="effect2_dropShadow"/><feBlend in="SourceGraphic" in2="effect2_dropShadow" result="shape"/></filter><filter id="filter2_dd" width="17.657" height="17.657" x="17.657" y="30" color-interpolation-filters="sRGB" filterUnits="userSpaceOnUse"><feFlood flood-opacity="0" result="BackgroundImageFix"/><feColorMatrix in="SourceAlpha" values="0 0 0 0 0 0 0 0 0 0 0 0 0 0 0 0 0 0 127 0"/><feOffset dy="1"/><feGaussianBlur stdDeviation="1"/><feColorMatrix values="0 0 0 0 0 0 0 0 0 0 0 0 0 0 0 0 0 0 0.2 0"/><feBlend in2="BackgroundImageFix" result="effect1_dropShadow"/><feColorMatrix in="SourceAlpha" values="0 0 0 0 0 0 0 0 0 0 0 0 0 0 0 0 0 0 127 0"/><feOffset dy="1"/><feGaussianBlur stdDeviation=".5"/><feColorMatrix values="0 0 0 0 0 0 0 0 0 0 0 0 0 0 0 0 0 0 0.1 0"/><feBlend in2="effect1_dropShadow" result="effect2_dropShadow"/><feBlend in="SourceGraphic" in2="effect2_dropShadow" result="shape"/></filter><filter id="filter3_dd" width="23.314" height="23.314" x="23.686" y="24.657" color-interpolation-filters="sRGB" filterUnits="userSpaceOnUse"><feFlood flood-opacity="0" result="BackgroundImageFix"/><feColorMatrix in="SourceAlpha" values="0 0 0 0 0 0 0 0 0 0 0 0 0 0 0 0 0 0 127 0"/><feOffset dy="1"/><feGaussianBlur stdDeviation="1"/><feColorMatrix values="0 0 0 0 0 0 0 0 0 0 0 0 0 0 0 0 0 0 0.2 0"/><feBlend in2="BackgroundImageFix" result="effect1_dropShadow"/><feColorMatrix in="SourceAlpha" values="0 0 0 0 0 0 0 0 0 0 0 0 0 0 0 0 0 0 127 0"/><feOffset dy="1"/><feGaussianBlur stdDeviation=".5"/><feColorMatrix values="0 0 0 0 0 0 0 0 0 0 0 0 0 0 0 0 0 0 0.1 0"/><feBlend in2="effect1_dropShadow" result="effect2_dropShadow"/><feBlend in="SourceGraphic" in2="effect2_dropShadow" result="shape"/></filter><linearGradient id="paint0_linear" x1="32" x2="32" y1="64" gradientUnits="userSpaceOnUse"><stop stop-color="#0CBDF6"/><stop offset="1" stop-color="#06C8C8"/></linearGradient></defs></svg>