<svg xmlns="http://www.w3.org/2000/svg" viewBox="0 0 48 48"><path fill="#70a9ed" d="M35,20a1,1,0,0,1-1-1V13a5.006,5.006,0,0,1,5-5h1a1,1,0,0,1,0,2H39a3,3,0,0,0-3,3v6A1,1,0,0,1,35,20Z"/><rect width="6" height="6" x="39" y="14" fill="#b3d9ff"/><path fill="#e0e9f5" d="M30,43H4a1,1,0,0,1-1-1V6A1,1,0,0,1,4,5H25l6,6V42A1,1,0,0,1,30,43Z"/><polygon fill="#e0e9f5" points="45 36 45 37 42 43 39 37 39 36 45 36"/><path fill="#70a9ed" d="M15 14H9a1 1 0 0 1 0-2h6a1 1 0 0 1 0 2zM25 20H13a1 1 0 0 1 0-2H25a1 1 0 0 1 0 2zM25 26H9a1 1 0 0 1 0-2H25a1 1 0 0 1 0 2zM25 32H9a1 1 0 0 1 0-2H25a1 1 0 0 1 0 2zM23 38H9a1 1 0 0 1 0-2H23a1 1 0 0 1 0 2z"/><path fill="#b3d9ff" d="M25,5v5a1,1,0,0,0,1,1h5Z"/><rect width="6" height="18" x="39" y="19" fill="#70a9ed" transform="rotate(-180 42 28)"/><path fill="#70a9ed" d="M39,5h6a0,0,0,0,1,0,0v7a3,3,0,0,1-3,3h0a3,3,0,0,1-3-3V5A0,0,0,0,1,39,5Z" transform="rotate(-180 42 10)"/><polygon fill="#417ace" points="43 41 42 43 41 41 43 41"/></svg>