<svg id="SvgjsSvg1001" width="288" height="288" xmlns="http://www.w3.org/2000/svg" version="1.1" xmlns:xlink="http://www.w3.org/1999/xlink" xmlns:svgjs="http://svgjs.com/svgjs"><defs id="SvgjsDefs1002"></defs><g id="SvgjsG1008" transform="matrix(1,0,0,1,0,0)"><svg xmlns="http://www.w3.org/2000/svg" viewBox="0 0 24 24" width="288" height="288"><path d="M21.5 21.5h-19A2.503 2.503 0 0 1 0 19V7c0-1.378 1.122-2.5 2.5-2.5h3.559c1.078 0 2.031.687 2.372 1.709l.088.265A1.497 1.497 0 0 0 9.941 7.5H21.5c1.379 0 2.5 1.122 2.5 2.5v9c0 1.379-1.121 2.5-2.5 2.5zm-19-16C1.673 5.5 1 6.173 1 7v12c0 .827.673 1.5 1.5 1.5h19c.827 0 1.5-.673 1.5-1.5v-9c0-.827-.673-1.5-1.5-1.5H9.941a2.497 2.497 0 0 1-2.372-1.709l-.088-.266A1.497 1.497 0 0 0 6.059 5.5H2.5z" fill="#ffffff" class="color000 svgShape"></path><path d="M22.5 8.5A.5.5 0 0 1 22 8V5c0-.827-.673-1.5-1.5-1.5h-17C2.673 3.5 2 4.173 2 5a.5.5 0 0 1-1 0c0-1.378 1.122-2.5 2.5-2.5h17C21.879 2.5 23 3.622 23 5v3a.5.5 0 0 1-.5.5z" fill="#ffffff" class="color000 svgShape"></path></svg></g></svg>