<svg xmlns="http://www.w3.org/2000/svg" viewBox="0 0 48 48"><path fill="#b3d9ff" d="M24,8a1,1,0,0,1-1-1V3a1,1,0,0,1,2,0V7A1,1,0,0,1,24,8Z"/><path fill="#70a9ed" d="M20,36.37V39h8V36.37a13,13,0,1,0-8,0Z"/><path fill="#b3d9ff" d="M45 25H41a1 1 0 0 1 0-2h4a1 1 0 0 1 0 2zM7 25H3a1 1 0 0 1 0-2H7a1 1 0 0 1 0 2z"/><path fill="#70a9ed" d="M21,41v3a1,1,0,0,0,1,1h4a1,1,0,0,0,1-1V41Z"/><path fill="#b3d9ff" d="M12 13a1 1 0 0 1-.707-.293l-4-4A1 1 0 1 1 8.707 7.293l4 4A1 1 0 0 1 12 13zM40 41a1 1 0 0 1-.707-.293l-4-4a1 1 0 0 1 1.414-1.414l4 4A1 1 0 0 1 40 41zM8 41a1 1 0 0 1-.707-1.707l4-4a1 1 0 0 1 1.414 1.414l-4 4A1 1 0 0 1 8 41zM36 13a1 1 0 0 1-.707-1.707l4-4a1 1 0 1 1 1.414 1.414l-4 4A1 1 0 0 1 36 13z"/><path fill="#e0e9f5" d="M29.875,24.515A1,1,0,0,0,29,24H19a1,1,0,0,0-.848,1.53L23,33.286V39a1,1,0,0,0,2,0V33.286l4.848-7.756A1,1,0,0,0,29.875,24.515ZM24,31.113,20.805,26H27.2Z"/><path fill="#e0e9f5" d="M28,38H20v3a1,1,0,0,0,1,1h6a1,1,0,0,0,1-1Z"/></svg>