<svg id="SvgjsSvg1026" width="288" height="288" xmlns="http://www.w3.org/2000/svg" version="1.1" xmlns:xlink="http://www.w3.org/1999/xlink" xmlns:svgjs="http://svgjs.com/svgjs"><defs id="SvgjsDefs1027"></defs><g id="SvgjsG1028" transform="matrix(1,0,0,1,0,0)"><svg xmlns="http://www.w3.org/2000/svg" viewBox="0 0 24 24" width="288" height="288"><path d="M5,7.087a3,3,0,0,0-3,3v3.826a3,3,0,0,0,2,2.816V21a1,1,0,0,0,1,1H9a1,1,0,0,0,1-1V17.423l10.609,4.5A1,1,0,0,0,22,21V3a1,1,0,0,0-1.391-.921L8.8,7.087ZM8,20H6V16.913H8Zm0-5.087H5a1,1,0,0,1-1-1V10.087a1,1,0,0,1,1-1H8Zm2-6.164L20,4.51V19.49L10,15.251Z" fill="#ffffff" class="color000 svgShape"></path></svg></g></svg>