<svg id="SvgjsSvg1042" width="288" height="288" xmlns="http://www.w3.org/2000/svg" version="1.1" xmlns:xlink="http://www.w3.org/1999/xlink" xmlns:svgjs="http://svgjs.com/svgjs"><defs id="SvgjsDefs1043"></defs><g id="SvgjsG1044" transform="matrix(1,0,0,1,0,0)"><svg xmlns="http://www.w3.org/2000/svg" fill-rule="evenodd" stroke-linejoin="round" stroke-miterlimit="2" clip-rule="evenodd" viewBox="0 0 32 32" width="288" height="288"><rect width="32" height="32" fill="none"></rect><path d="M11,55C11,54.448 10.552,54 10,54L6,54C5.448,54 5,54.448 5,55L5,65C5,65.552 5.448,66 6,66L10,66C10.552,66 11,65.552 11,65L11,55ZM19,51C19,50.448 18.552,50 18,50L14,50C13.448,50 13,50.448 13,51L13,65C13,65.552 13.448,66 14,66L18,66C18.552,66 19,65.552 19,65L19,51ZM27,47C27,46.448 26.552,46 26,46L22,46C21.448,46 21,46.448 21,47L21,65C21,65.552 21.448,66 22,66L26,66C26.552,66 27,65.552 27,65L27,47ZM7,56L7,64L9,64L9,56L7,56ZM15,52L15,64L17,64L17,52L15,52ZM23,48L23,64L25,64L25,48L23,48ZM16.663,40.906L15.464,39.707C15.074,39.317 15.074,38.683 15.464,38.293C15.855,37.903 16.488,37.903 16.879,38.293L19.707,41.121C19.828,41.242 19.911,41.386 19.957,41.538C19.979,41.612 19.993,41.689 19.998,41.768L19.999,41.796L20,41.816L20,41.841L19.999,41.867L19.998,41.889C19.993,41.968 19.979,42.045 19.957,42.119C19.911,42.271 19.828,42.415 19.707,42.536L16.879,45.364C16.488,45.754 15.855,45.754 15.464,45.364C15.074,44.974 15.074,44.34 15.464,43.95L16.495,42.919C13.777,43.136 11.605,43.77 9.962,45.114C8.588,46.238 7.607,47.86 6.961,50.105C6.808,50.635 6.254,50.942 5.723,50.789C5.193,50.637 4.886,50.082 5.039,49.552C5.817,46.848 7.041,44.92 8.696,43.566C10.68,41.943 13.316,41.143 16.663,40.906Z" transform="translate(0 -36)" fill="#ffffff" class="color000 svgShape"></path></svg></g></svg>