<svg xmlns="http://www.w3.org/2000/svg" viewBox="0 0 48 48"><path fill="#70a9ed" d="M30,39l6-3v-.073a14,14,0,0,0-6.8-12l-2.232-1.339A2,2,0,0,1,26,20.868V20.44a2,2,0,0,1,2.392-1.962L36,20l2-4-4-2L30,9H28V4h0A18,18,0,0,0,10,22v8a5.653,5.653,0,0,1,7.582,8L17,39Z"/><path fill="#417ace" d="M18,38H32a6,6,0,0,1,6,6v0a0,0,0,0,1,0,0H12a0,0,0,0,1,0,0v0A6,6,0,0,1,18,38Z"/><path fill="#e0e9f5" d="M16,25a1,1,0,0,1-1-1V18.944A8.949,8.949,0,0,1,19.975,10.9l3.578-1.79a1,1,0,0,1,.894,1.79l-3.578,1.789A6.957,6.957,0,0,0,17,18.944V24A1,1,0,0,1,16,25Z"/><circle cx="28" cy="14" r="1" fill="#e0e9f5"/></svg>